<?xml version="1.0" encoding="UTF-8" standalone="no"?>
<svg
   xmlns:dc="http://purl.org/dc/elements/1.1/"
   xmlns:cc="http://creativecommons.org/ns#"
   xmlns:rdf="http://www.w3.org/1999/02/22-rdf-syntax-ns#"
   xmlns:svg="http://www.w3.org/2000/svg"
   xmlns="http://www.w3.org/2000/svg"
   xmlns:sodipodi="http://sodipodi.sourceforge.net/DTD/sodipodi-0.dtd"
   xmlns:inkscape="http://www.inkscape.org/namespaces/inkscape"
   version="1.1"
   id="Capa_1"
   x="0px"
   y="0px"
   width="403.172px"
   height="403.172px"
   viewBox="0 0 403.172 403.172"
   style="enable-background:new 0 0 403.172 403.172;"
   xml:space="preserve"
   sodipodi:docname="location-pointer.svg"
   inkscape:version="1.0.1 (c497b03c, 2020-09-10)"><metadata
   id="metadata172"><rdf:RDF><cc:Work
       rdf:about=""><dc:format>image/svg+xml</dc:format><dc:type
         rdf:resource="http://purl.org/dc/dcmitype/StillImage" /><dc:title></dc:title></cc:Work></rdf:RDF></metadata><defs
   id="defs170" /><sodipodi:namedview
   pagecolor="#ffffff"
   bordercolor="#666666"
   borderopacity="1"
   objecttolerance="10"
   gridtolerance="10"
   guidetolerance="10"
   inkscape:pageopacity="0"
   inkscape:pageshadow="2"
   inkscape:window-width="1684"
   inkscape:window-height="1222"
   id="namedview168"
   showgrid="false"
   inkscape:zoom="2.5001736"
   inkscape:cx="124.59135"
   inkscape:cy="201.586"
   inkscape:window-x="3210"
   inkscape:window-y="68"
   inkscape:window-maximized="0"
   inkscape:current-layer="Capa_1"
   inkscape:snap-text-baseline="true" />
<g
   id="g135">
	<g
   id="g133">
		<g
   id="g131">
			<path
   d="M201.586,0c-85.468,0-155,69.532-155,155c0,51.179,24.938,96.635,63.294,124.878l80.073,117.154     c2.625,3.843,6.979,6.14,11.633,6.14c4.654,0,9.007-2.297,11.633-6.14l80.073-117.154     c38.356-28.243,63.294-73.699,63.294-124.878C356.586,69.532,287.054,0,201.586,0z M219.273,261.572     c-5.724,0.672-11.641,1.058-17.688,1.058s-11.965-0.386-17.688-1.056c-51.183-8.467-90.343-53.03-90.343-106.574     c0-59.568,48.462-108.03,108.03-108.03c59.568,0,108.03,48.462,108.03,108.03C309.616,208.544,270.457,253.107,219.273,261.572z"
   id="path127" />
			<circle
   cx="201.586"
   cy="155"
   r="56.364"
   id="circle129" />
		</g>
	</g>
</g>
<g
   id="g137">
</g>
<g
   id="g139">
</g>
<g
   id="g141">
</g>
<g
   id="g143">
</g>
<g
   id="g145">
</g>
<g
   id="g147">
</g>
<g
   id="g149">
</g>
<g
   id="g151">
</g>
<g
   id="g153">
</g>
<g
   id="g155">
</g>
<g
   id="g157">
</g>
<g
   id="g159">
</g>
<g
   id="g161">
</g>
<g
   id="g163">
</g>
<g
   id="g165">
</g>
<path
   style="fill:#ff8200;stroke-width:0.399972;fill-opacity:1"
   d="m 187.98694,261.76645 c -17.47492,-1.75888 -35.64408,-9.14497 -51.36822,-20.88212 -6.28735,-4.69314 -16.42369,-14.87764 -21.19886,-21.29958 -28.904585,-38.87268 -28.874928,-90.54959 0.0742,-129.323155 4.85554,-6.503366 14.92726,-16.546441 21.49641,-21.435286 20.08798,-14.949737 43.45421,-22.3404 67.9912,-21.505392 22.46882,0.764628 43.09032,7.995934 61.14262,21.440774 6.69199,4.984005 16.64719,14.943251 21.62326,21.632031 18.06926,24.288538 25.14628,53.731738 19.99671,83.194218 -2.93638,16.8001 -9.6356,32.13101 -20.26007,46.36443 -4.60495,6.16918 -14.85958,16.39743 -21.18778,21.13328 -15.86859,11.87564 -34.8972,19.36418 -53.03303,20.8707 -6.70896,0.5573 -18.75175,0.46683 -25.27646,-0.1899 z m 24.16876,-51.1893 c 17.19488,-3.31265 31.89422,-14.35962 39.79333,-29.90583 12.486,-24.57365 5.43267,-54.74435 -16.62087,-71.09605 -20.15974,-14.947543 -47.71095,-14.799389 -67.9117,0.36519 -11.00155,8.2588 -18.7071,20.71981 -21.49996,34.76863 -1.05783,5.32117 -0.9424,16.15773 0.23073,21.66202 5.10896,23.97095 24.42234,41.75104 48.68275,44.81785 3.88626,0.49127 13.33121,0.15775 17.32572,-0.61181 z"
   id="path174" /></svg>
