<?xml version="1.0" encoding="UTF-8" standalone="no"?>
<svg
   xmlns:dc="http://purl.org/dc/elements/1.1/"
   xmlns:cc="http://creativecommons.org/ns#"
   xmlns:rdf="http://www.w3.org/1999/02/22-rdf-syntax-ns#"
   xmlns:svg="http://www.w3.org/2000/svg"
   xmlns="http://www.w3.org/2000/svg"
   xmlns:sodipodi="http://sodipodi.sourceforge.net/DTD/sodipodi-0.dtd"
   xmlns:inkscape="http://www.inkscape.org/namespaces/inkscape"
   id="Capa_1"
   enable-background="new 0 0 496.239 496.239"
   height="512"
   viewBox="0 0 496.239 496.239"
   width="512"
   version="1.1"
   sodipodi:docname="mecca.svg"
   inkscape:version="1.0.1 (c497b03c, 2020-09-10)">
  <metadata
     id="metadata921">
    <rdf:RDF>
      <cc:Work
         rdf:about="">
        <dc:format>image/svg+xml</dc:format>
        <dc:type
           rdf:resource="http://purl.org/dc/dcmitype/StillImage" />
      </cc:Work>
    </rdf:RDF>
  </metadata>
  <defs
     id="defs919" />
  <sodipodi:namedview
     pagecolor="#ffffff"
     bordercolor="#666666"
     borderopacity="1"
     objecttolerance="10"
     gridtolerance="10"
     guidetolerance="10"
     inkscape:pageopacity="0"
     inkscape:pageshadow="2"
     inkscape:window-width="1399"
     inkscape:window-height="1052"
     id="namedview917"
     showgrid="false"
     inkscape:zoom="1.3046875"
     inkscape:cx="256"
     inkscape:cy="256"
     inkscape:window-x="2957"
     inkscape:window-y="219"
     inkscape:window-maximized="0"
     inkscape:current-layer="Capa_1" />
  <g
     id="g914">
    <path
       d="m446.36 198.136c-.001-109.429-88.708-198.136-198.134-198.136h-.212c-109.427 0-198.134 88.707-198.135 198.136 0 82.057 57.032 152.395 109.061 210.383 20.614 22.975 56.736 61.458 76.115 82.016 7.165 7.601 19.236 7.602 26.424.024 25.625-27.017 50.954-54.327 75.819-82.04 52.03-57.988 109.062-128.326 109.062-210.383z"
       fill="#b5adb6"
       id="path896" />
    <path
       d="m446.359 198.135c0 82.06-57.03 152.4-109.06 210.38-24.87 27.72-50.2 55.03-75.82 82.04-7.19 7.58-19.26 7.58-26.42-.02-.45-.48-.91-.96-1.37-1.46 2.94-.87 5.7-2.51 7.97-4.91 25.62-27.02 50.95-54.33 75.82-82.04 52.03-57.99 109.06-128.33 109.06-210.38 0-84.49-52.89-156.63-127.36-185.12 84.731 22.48 147.18 99.7 147.18 191.51z"
       fill="#a79ba7"
       id="path898" />
    <circle
       cx="248.12"
       cy="198.134"
       fill="#fdf6ec"
       r="155.61"
       id="circle900" />
    <path
       d="m403.729 198.135c0 85.94-69.67 155.61-155.61 155.61-23 0-44.83-4.99-64.48-13.95 14.24 4.29 29.33 6.6 44.97 6.6 85.94 0 155.61-69.67 155.61-155.61 0-62.94-37.37-117.15-91.13-141.66 64.02 19.29 110.64 78.71 110.64 149.01z"
       fill="#fcead0"
       id="path902" />
    <path
       d="m325.468 281.535h-77.348l-1.411-1.017h-41.615l-1.32 1.017h-33.003c-1.519 0-2.75-1.231-2.75-2.75v-99.013l.799-.776v-30.917l-.799-.495v-30.103c0-1.519 1.231-2.75 2.75-2.75h154.698c1.519 0 2.75 1.231 2.75 2.75v30.103l-.491.622v31.049l.491.508v99.021c-.001 1.52-1.232 2.751-2.751 2.751z"
       fill="#685e68"
       id="path904" />
    <path
       d="m328.22 117.485v30.103l-.492.556v30.986l.492.639v99.016c0 1.52-1.23 2.75-2.75 2.75h-20c1.52 0 2.75-1.23 2.75-2.75v-161.3c0-1.52-1.23-2.75-2.75-2.75h20c1.52 0 2.75 1.23 2.75 2.75z"
       fill="#554e56"
       id="path906" />
    <path
       d="m168.021 147.585h160.197v32.184h-160.197z"
       fill="#fece85"
       id="path908" />
    <path
       d="m308.22 147.585h19.999v32.184h-19.999z"
       fill="#fec165"
       id="path910" />
    <path
       d="m248.12 281.535h-44.346v-70.955c0-1.42 1.151-2.571 2.571-2.571h39.203c1.42 0 2.571 1.151 2.571 2.571v70.955z"
       fill="#f3f0f3"
       id="path912" />
  </g>
  <path
     style="fill:#000000;stroke-width:0.766467"
     d="M 224.41549,486.12164 C 214.99823,476.11522 200.91899,461.02994 193.12831,452.5988 153.76489,409.99946 137.25599,391.00533 119.24742,367.59601 79.015116,315.29809 57.505122,268.52902 52.818635,223.16027 51.679967,212.1371 52.339369,184.73386 53.989378,174.50686 58.18151,148.52341 66.233642,125.2279 78.352176,104.02322 101.12798,64.170741 136.70027,32.798469 178.4507,15.743322 207.04058,4.0642885 236.38064,-0.83380055 267.55709,0.86772173 289.74735,2.0788036 305.83111,5.520729 320.4606,12.18908 c 63.68713,29.029576 108.03002,89.14667 117.64826,159.49954 1.60211,11.71876 1.8162,36.89921 0.40728,47.90419 -5.61927,43.89169 -25.34797,87.29189 -61.6699,135.66468 -22.8061,30.37266 -60.33653,72.77632 -125.06142,141.30028 -2.52955,2.67803 -5.86996,5.519 -7.42312,6.31326 l -2.82393,1.44411 z m 54.57852,-122.53185 c 17.14649,-2.42246 31.33476,-6.76755 47.13773,-14.43572 27.37809,-13.28483 50.64322,-34.15539 66.4871,-59.64388 5.74157,-9.23664 13.05542,-24.97247 16.28767,-35.04312 C 427.6128,196.18418 412.73123,133.85913 369.82476,90.789955 345.87876,66.75315 315.81866,51.308608 281.76297,45.5448 271.85457,43.867835 250.4822,43.279909 239.85415,44.391941 169.78798,51.723088 113.01277,102.76206 98.597289,171.37702 c -5.853129,27.8598 -4.306563,55.82683 4.593531,83.06617 20.54803,62.88865 76.81544,106.25073 143.61158,110.67325 7.04097,0.46618 23.66706,-0.3223 32.19161,-1.52665 z"
     id="path923"
     transform="scale(0.9692168)" />
  <path
     style="fill:#000000;stroke-width:0.766467"
     d="m 175.32934,289.66316 c -1.25646,-0.73183 -1.34132,-4.05167 -1.34132,-52.47969 v -51.69844 h 72.06364 72.06364 l -0.20735,51.76469 c -0.18036,45.02626 -0.35701,51.85927 -1.35705,52.49126 -0.67243,0.42495 -13.47619,0.73144 -30.84308,0.7383 l -29.69337,0.0117 -0.19885,-37.74851 -0.19883,-37.7485 h -22.61078 -22.61078 l -0.19884,37.7485 -0.19884,37.74851 -16.66344,-0.0233 c -9.88596,-0.0138 -17.20898,-0.34106 -18.00475,-0.80455 z"
     id="path925"
     transform="scale(0.9692168)" />
  <path
     style="fill:#ff9200;stroke-width:0.766467;fill-opacity:1"
     d="m 174.1644,135.47305 0.20686,-16.28742 70.8982,-0.19824 c 65.97357,-0.18446 70.96476,-0.10774 71.85629,1.10458 0.69038,0.93878 0.95808,5.5452 0.95808,16.48566 v 15.18285 h -72.06315 -72.06314 z"
     id="path927"
     transform="scale(0.9692168)" />
  <path
     style="fill:#ff8b00;fill-opacity:1;stroke-width:0.766467"
     d="m 173.98802,169.00992 v -16.48297 h 72.06315 72.06315 l -0.20686,16.28742 -0.20686,16.28743 -71.85629,0.19554 -71.85629,0.19555 z"
     id="path929"
     transform="scale(0.9692168)" />
  <path
     style="fill:#000000;fill-opacity:1;stroke-width:0.766467"
     d="m 174.26254,148.88623 c 0.26129,-1.58084 0.47888,-8.82395 0.48352,-16.09581 l 0.008,-13.22156 70.32335,0.0117 c 38.67785,0.006 70.72119,0.26514 71.20743,0.57485 0.58799,0.37452 1.07241,5.76114 1.44643,16.08407 l 0.56236,15.52096 h -72.2533 -72.25331 z"
     id="path931"
     transform="scale(0.9692168)" />
</svg>
